<svg width="210" height="100" viewBox="0 0 210 100" fill="none" xmlns="http://www.w3.org/2000/svg">
<path d="M57.1377 0.317383H93.7588V33.5693H79.1104C71.7373 33.5693 66.0488 31.6895 62.0449 27.9297C58.7734 24.8535 57.1377 21.0449 57.1377 16.5039V0.317383ZM38.6807 100C30.7705 100 23.7393 97.0703 17.5869 91.2109C12.167 86.0352 7.91895 79.1504 4.84277 70.5566C2.01074 62.6465 0.594727 54.8096 0.594727 47.0459C0.594727 35.376 3.47559 25 9.2373 15.918C13.3389 9.47266 18.7344 4.93164 25.4238 2.29492C28.8418 0.976562 32.6504 0.317383 36.8496 0.317383H42.4893V100H38.6807ZM53.3291 53.418H93.7588V71.2891C93.7588 81.7383 91.0488 89.1113 85.6289 93.4082C80.1602 97.8027 71.127 100 58.5293 100H53.3291V53.418ZM161.874 0.317383H167.294C181.796 0.317383 192.636 3.80859 199.813 10.791C206.405 17.1875 209.701 26.2451 209.701 37.9639C209.701 48.3643 206.283 56.7383 199.447 63.0859C192.172 69.8242 182.138 73.1934 169.345 73.1934H161.874V0.317383ZM109.286 0.317383H148.69V99.8535H109.286V0.317383Z" fill="#591E1E"/>
</svg>
